<svg xmlns="http://www.w3.org/2000/svg" xmlns:xlink="http://www.w3.org/1999/xlink"><defs><style>
    .sprite-symbol-usage {display: none;}
    .sprite-symbol-usage:target {display: inline;}
  </style><symbol viewBox="0 0 24 24" id="chevron-down"><path d="m8 10 4 4 4-4" fill="none" stroke="currentColor" stroke-linecap="square" stroke-width="2" /></symbol><symbol viewBox="0 0 24 24" id="clock"><path d="M12 8v4l2.5 2.5M21 12a9 9 0 1 1-9-9 9 9 0 0 1 9 9Z" fill="none" stroke="currentColor" stroke-linecap="square" stroke-width="2" /></symbol><symbol viewBox="0 0 666.67 666.67" id="dark-theme"><path d="M333.33 666.67c184.1 0 333.34-149.24 333.34-333.34S517.43 0 333.33 0 0 149.24 0 333.33s149.24 333.34 333.33 333.34Zm0-50V50c156.48 0 283.34 126.85 283.34 283.33S489.81 616.67 333.33 616.67Z" fill="currentColor" /></symbol><symbol viewBox="0 0 24 24" id="pictures"><path d="M15 6.5A2.5 2.5 0 1 0 17.5 9 2.5 2.5 0 0 0 15 6.5Z" fill="currentColor" /><path d="M3 3h18v18H3Zm16 9.84a5.42 5.42 0 0 1-4 1.61c-1.91 0-3.38-1.16-4.85-2.75a3 3 0 0 0-3.86-.45L5 12.21V5h14Z" fill="currentColor" fill-rule="evenodd" /></symbol><symbol viewBox="0 0 24 24" id="search"><path d="m20 20-3.95-3.95M18 11a7 7 0 1 1-7-7 7 7 0 0 1 7 7Z" fill="none" stroke="#666" stroke-linecap="square" stroke-width="2" /></symbol><symbol viewBox="0 0 24 24" id="smiley"><path d="M17.5 12a5.5 5.5 0 0 1-11 0M21 12a9 9 0 1 1-9-9 9 9 0 0 1 9 9Z" fill="none" stroke="currentColor" stroke-width="2" /><path d="M11 9a1.5 1.5 0 1 1-1.5-1.5A1.5 1.5 0 0 1 11 9ZM16 9a1.5 1.5 0 1 1-1.5-1.5A1.5 1.5 0 0 1 16 9Z" fill="currentColor" /></symbol><symbol viewBox="0 0 24 24" id="trash"><path d="m6 21-1 .07.06.93H6Zm12 0v1h.94l.06-.93ZM3 5H2v2h1Zm18 2h1V5h-1Zm-10 4v-1H9v1Zm-2 5v1h2v-1Zm6-5v-1h-2v1Zm-2 5v1h2v-1ZM4 6.07l1 15 2-.14-1-15ZM6 22h12v-2H6Zm13-.93 1-15-2-.14-1 15ZM19 5H5v2h14ZM3 7h2V5H3Zm16 0h2V5h-2ZM9 11v5h2v-5Zm4 0v5h2v-5Zm-1-7a3 3 0 0 1 2.91 2.25l1.93-.5A5 5 0 0 0 12 2ZM9.09 6.25A3 3 0 0 1 12 4V2a5 5 0 0 0-4.84 3.75Z" fill="currentColor" /></symbol></defs><use id="chevron-down-usage" xlink:href="#chevron-down" class="sprite-symbol-usage" /><use id="clock-usage" xlink:href="#clock" class="sprite-symbol-usage" /><use id="dark-theme-usage" xlink:href="#dark-theme" class="sprite-symbol-usage" /><use id="pictures-usage" xlink:href="#pictures" class="sprite-symbol-usage" /><use id="search-usage" xlink:href="#search" class="sprite-symbol-usage" /><use id="smiley-usage" xlink:href="#smiley" class="sprite-symbol-usage" /><use id="trash-usage" xlink:href="#trash" class="sprite-symbol-usage" /></svg>